<svg xmlns="http://www.w3.org/2000/svg" viewBox="0 0 300 130" fill="currentColor">
  <g transform="matrix(2.512,0,0,2.512,-8.39,-9.74)">
    <g clip-rule="nonzero">
      <path d="M101.37 34.72c-.04-.21-.04-.39 1.02-.72 1.05-.32 3.2-.89 4.9-1.75s1.76-1.98 2.12-1.74c.36.24.26.83.26 1.24v4.2c.57-.93 2.43-4.02 3.9-4.93 1.16-.72 1.57-.78 2.29-.79.86-.02 2.9.51 2.99 2.67.07 1.68-1.17 2.36-1.96 2.25-.63-.09-1.08-.67-1.46-1.26-.38-.59-.98-.95-1.58-.74s-3.97 2.19-4.16 5.3c-.14 2.29 0 9.43 0 9.43 0 1.08.41 1.5.9 1.79.48.29 2.25.31 2.74.38.5.07.48.19.48.35 0 .15 0 .22-.45.22H101.8c-.38 0-.53-.07-.53-.3 0-.31.5-.25.87-.31.38-.05 2.38.11 2.96-.9.42-.66.37-1.72.37-1.72l-.06-12.54c0-1.01-.3-1.16-.58-1.32-.28-.16-.74-.24-1.73.09-.93.3-1.56.59-1.74.2" fill="currentColor"/>
      <path d="M59.92 34.72c-.16-.31.14-.51 1.02-.74.98-.26 3.13-.91 4.83-1.88 1.7-.96 2-1.06 2.36-.95.36.12.33.76.33 1.27v16.22c0 .91.12 1.29.53 1.67.41.38 1.44.6 2.78.6.61 0 .79.07.79.33s-.19.26-.43.26H60.37c-.36 0-.45-.16-.45-.31 0-.19.16-.31.71-.31.46 0 2.59.16 3.07-.95.19-.42.28-1.01.28-1.56v-12.87c0-.98-.76-1.41-1.63-1.2-1.02.23-2.22.81-2.43.41" fill="currentColor"/>
      <path d="M65.92 23.5c1.6 0 2.89-1.3 2.89-2.89s-1.3-2.89-2.89-2.89-2.89 1.3-2.89 2.89 1.3 2.89 2.89 2.89" fill="currentColor"/>
      <path d="M80.05 41.9c.58 5.26 3.72 9.35 7.6 8.67s5.84-4.4 5.37-10.35c-.48-6.05-3.47-9.07-7.5-8.71-4.16.38-6.06 5.12-5.47 10.39m3.85-11.32c5.01-.94 12.14.17 13.76 8.01 1.62 7.84-3.78 12.02-8.46 13.04-4.58.99-12.35.29-13.76-8.15-1.27-7.57 4.23-12.11 8.46-12.9" fill="currentColor"/>
      <path d="M24.57 50.24h2.91c10.81 0 13.72-1 17.52-6.06s4.26-12.31 4.26-14.77-0.65-8.61-4.46-13.82c-3.81-5.21-10.17-6.56-15.72-6.56h-4.53c-1.07 0-1.13.48-1.13 1.23v39.02c0 .85.3.95 1.15.95M6.96 51.15c0-.39.51-.46.99-.48 5.5-.16 6.53-.35 7.16-1 .34-.36.84-.65.84-3.2V11.38c0-3.15-3.83-2.65-6.53-2.93-0.95-.09-1.03-.22-1.03-.5 0-.27.18-.4.68-.42h22.18c24.38 0 25.63 17.82 25.63 22.58 0 10.21-6.75 21.45-20.87 21.45H7.68c-.35 0-.71-.05-.71-.4" fill="currentColor"/>
    </g>
  </g>
</svg>
