<svg xmlns="http://www.w3.org/2000/svg" viewBox="0 0 70 40" fill="currentColor"><path d="M6.74 21.39h1.33v2.53h-4.7v-2.53h1.31v-1.48H.5v1.48h1.33v7.44H.5v1.47h4.18v-1.47H3.36v-3.45h4.7v3.45H6.74v1.47h4.2v-1.47H9.6v-7.44h1.33v-1.48H6.74m50.43 8.92h-4.12v-3.47h3.54V23.9h-3.55v-2.51h4.16v1.42h1.46v-2.9h-8.54v1.48h1.39v7.44h-1.4v1.47h8.57v-3.46h-1.51m-35.72 0h-1.51v1.99h-4.12v-3.47h3.54V23.9h-3.54v-2.51h4.15v1.42h1.46v-2.9H12.9v1.48h1.4v7.44h-1.4v1.47h8.56m32-10.9h2.99l-.77-.92H52.6M67 24.36c-1.04-.3-1.78-.23-2.84-.58-.96-.33-1.15-.92-1.15-1.3 0-.4.42-1.42 1.93-1.42s2.5 1 2.56 1.88h1.45V19.9h-1.4v.66l.04.2a.77.77 0 0 0-.2-.26c-.44-.4-1.29-.84-2.56-.84-1.55 0-3.37.96-3.37 2.8 0 1.81 1.3 2.44 2.41 2.74 1.1.29 1.67.29 2.6.54.92.25 1.52.8 1.52 1.63 0 .78-.48 1.8-2.44 1.8-1.95 0-2.72-1.05-2.95-2.56h-1.39v3.69h1.44v-.7l-.06-.18s.05.12.22.24l.01.02c.73.56 1.69.93 2.92.93 1.37 0 3.77-.7 3.77-3.2 0-1.78-.95-2.62-2.5-3.06zm-23.07 4.47v1.47h4.24v-1.47h-1.39v-7.44h1.39v-1.48h-3.79l-2.51 6.07-.05.3-.05-.3-2.51-6.07h-3.79v1.48h1.39v7.44h-1.39v1.47h4.24v-1.47h-1.33v-6.84l.01-.45.12.36 2.9 6.91h.82l2.9-6.92.1-.36.02.41v6.89m-30.28-13.3v.34h1.43a5.4 5.4 0 0 1-.41-.34h-1.02zm38.51.01h-.74c-.2.04-.36.22-.38.33h1.12v-.33zm-38.51 1.33h38.5v-.72H28.72c-.63.3-1.44.28-2.06 0h-7.52c-.71.3-1.53.3-2.24 0h-1.92v.71zm10.84-1.34H20c-.02.04-.29.27-.4.34h6.58a2.11 2.11 0 0 1-.37-.34z"></path><path d="M15.63 12.86a2.48 2.48 0 0 0-.12.7 2.49 2.49 0 0 0 4.98 0c0-.29-.06-.57-.16-.83.29-.05.57-.1.84-.19.13-.03.13-.09.03-.12-.37-.11-.76-.2-1.16-.28A2.48 2.48 0 0 0 18 11.08c-.32 0-.62.07-.9.18v-.01a.76.76 0 0 1-.04-.68c.25-.4.81-.57 1.28-.6.15-.02.52 0 .56.05.1.07.25.1.41.04.16.06.2.1.38.16 1.58.54 3.34.82 5.11.5.28.26.43.72.62 1.04.06.08.12-.06 1-.1h1a2.2 2.2 0 0 0-1.6 1.02c-.55.17-.97.34-1.13.44-.2.11-.23.18 0 .24.28.07.55.12.82.15a2.1 2.1 0 0 0-.04.34 2.2 2.2 0 1 0 4.41 0c0-.38-.1-.74-.27-1.05.28-.1.57-.2.88-.33.24.09.4.23.58.43.14.16.45.1.64.05.3-.08.35-.32.35-.6 0-.12 0-.25.07-.35.35-.81 1.78-.92 2.51-1.1 0 0-.38.46-.65.57-.06 1.18-.51 2.21-.57 3.35.35.01.33.4.42.62-.1.2-.27 0-.42.07-.52-.3.13-.76-.3-1.12.22-.95.58-1.88.55-2.88-.14.01-.19.16-.25.27-.1.96-.37 1.83-.62 2.7.11.06.3.12.3.28-.34.21 0 .54-.13.78h-3.4l-.39.34h5.23l.05-.2c-.77-.8-.48-2-.13-2.9l.9-1.22c.74-.29 1.2-1.2 1.99-1.49 0 .4-.49.56-.75.78-.27.64-1.14.71-1.27 1.43.33.39.83.64 1.24 1 .43.26.28.8.62 1.09.06.08 0 .2-.1.27-.36.09-.35.33-.13.54.14.13.3.3.28.36h-2.4c0 .11.1.15.2.34h13.3c.1-.19-.1-.4-.2-.6-.94-.35-.94-1.24-1-2.22.02-.04-.05-.13-.04-.33a4.78 4.78 0 0 1-.47-2.94l.2-.4c.2-.28-.01-.43.13-.72l2.8-.54c.05-.03.04-.14-.01-.2l-.86.17a6.13 6.13 0 0 1-2.32-1.77c.2-1.39.1-2.51-.04-3.26.41-.34.75-.67.75-.67.28.17.34.1.38 0-.04-.05-.46-.23-.4-.41.27.07.33-.01.37-.16l-.19-.07.03-.1c.05-.1.3 0 .4-.03.17-.1-.02-.26.03-.4C47.38.92 46.68.9 46.25.6c-.13-.25-.18-.35-.32-.45a2 2 0 0 0-.87-.12c-.12.04-.33.24-.33.24-.45.1-.71-.05-1.02-.23 0 0 .07.35.41.5-.3.12-.44.38-.49.7-.42.1-.44.52-.38.7-.35.21-.32.49-.2.77-.3.2-.26.5-.17.73-.26.16 0 .6.04.87.75-.16 1.68 1.5 3.02 1.7.25-1.18-.06-1.76-.35-2.34.22-.13.45-.3.68-.48.14.74.23 1.82.08 3.05l-.02-.02c-.09 0-.17-.06-.24-.09.01.04.17.29.14.33 0 0-.44.29-1.3-.07-.23.54-3.18 1.86-3.18 1.86.1.81.5 1.35.9 1.8.63.47 1.3.7 2.1.88.18.43.72 1.87.77 2.1.05.24.18.24.18.24.08.1.33.56.36.78l.06.78c.03.18.26.05.3.2l-.1.52h-8.86c.13-.62-.19-1.16-.02-1.71-.36-.62-1.33-1.05-1.16-1.86.47-.65 1.93-1.28 1.6-2.07 1.32-.67 2.02.45 3.28.37.44-.02.93-.07 1.33-.19a5.01 5.01 0 0 1-1.22-1.63 45.24 45.24 0 0 1-8.05 2.52L33 10.9a47 47 0 0 0-4.2 1.06 2.2 2.2 0 0 0-.71-.27h.07c.27 0 .68-.14.97-.24 1.22-.45 1.67-2.19 2.22-3.3.48 1.72 1.59 1.86 2.24 1.65l.06.54s.56-.02.98-.19c-.04-.1-.1-.38-.14-.73l.52-.3c.03.4.06.8-.06 1l1.45-.39c.28-1.26 1.04-3 2.38-4.28a3.4 3.4 0 0 0-3.5.43c-1.7.54-1.76 2.88-1.7 3.69-.3.06-1.54.49-2.12-1.65a7.9 7.9 0 0 1 1.7-2.44c.07-.06 0-.14-.15-.06-1.45 1-1.99 2.76-2.77 4.25a2.84 2.84 0 0 1-2.68 1.37c-1.56-.02-2.3-1.64-3.02-2.7-1.09-2.38-3.9-1.52-6-2.03-.12-.06-.35-.75-.69-.73-.24.02-.01.26-.15.35-.26-.11-.48-.3-.81-.25-.21.04-.27.26-.25.45.16.76.98 1.1 1.58 1.37.24.35.15 1.55-.04 1.96-.25.46-1.24.3-1.43 1.35a.9.9 0 0 0 .1.58 2.5 2.5 0 0 0-.94.86c-.42.1-.83.21-1.2.35-.1.03-.1.1.02.12l.9.15zm31.05-5.9c.36.4 1.22.99 1.77 1.19l-1.6.29c.19-.68-.42-.93-.17-1.48zm.17-5.46c.06-.03.23.04.3.05.04.01.03.1 0 .18-.1.03-.26-.03-.28-.09-.03-.06-.07-.12-.01-.14zm.02.4c.02.12.06.26.13.36 0 .05-.3.32-.63.61-.09-.42-.17-.7-.2-.82.14-.1.5-.2.7-.14zM45.34.45c.06-.02.18.02.22.05.03.02 0 .12 0 .16 0 .03-.15.1-.15.1s-.14-.1-.14-.14h-.01a1.33 1.33 0 0 1 .08-.17zm.19 3.09a2.49 2.49 0 0 1-.3-1.37c.18 0 .45.11.8-.05 0 0 .1.33.2.87-.25.21-.52.42-.7.55zm-2.39 6.6c-.57-.28-.21-.04-.05-.16.9.41 1.36.32 2.04.23.1.13.23.25.23.41-.83.23-1.47-.07-2.22-.47zm3.26 4.46c-.06-.44-.08-.75-.28-.96-.16-.44-.63-1.65-.96-2.74.2-.2.36-.1.5.45.12.44.27.8.39 1.16.15.37.27.86.38 1.12 0 0 .1.02.17.16.29.8.36.94.31 1.32.07.3.5.06.46.43h-.9.4c-.28-.29-.09-.72-.47-.94zm-17.64.72c-.25.19-.55.3-.87.35-.03-.01-.06-.08-.06-.12l-.06-1.13.03-.03c.03 0 .1-.04.14-.05h.05l.74.85c.03.04.05.1.03.13zm-1.14.36c-.3 0-.58-.1-.83-.23-.02-.03 0-.1.01-.14l.62-.94h.05l.12.03.04.03.05 1.13c0 .04-.03.11-.06.12zm-1.56-2.35c-.04 0-.1-.06-.1-.1.06-.15.13-.3.23-.43l.46-.12.5.62h-.02a8.4 8.4 0 0 1-.92.07l-.15-.04zm1.4-1.29c.04.02.07.08.07.12v.09c-.3.06-.6.12-.87.2-.02-.04-.03-.09-.02-.1.24-.17.52-.27.82-.3zm-.15 1.24-.5-.64c.24-.06.49-.12.73-.16l.04.74-.27.06zm-.05.2v.01a.94.94 0 0 0-.07.11l-.04.03-.37-.1.48-.06zm.67-.14h-.04.05zm-.2-.16-.04-.73c.3-.06.6-.1.9-.14a.26.26 0 0 1-.04.08l-.45.7-.38.1zm.95-.7c.02-.04.08-.08.11-.07.13.1.25.22.35.35-.27.1-.55.18-.82.26l.36-.55zm-1-.26v-.07c0-.04.02-.11.06-.12.19 0 .37.04.54.1l-.6.09zm-.03-.2h.05-.05zm-2.62 1.25c-.1-.03-.07-.06-.01-.08.2-.08.41-.16.65-.23-.06.12-.1.26-.14.4a2.8 2.8 0 0 1-.5-.09zm.85.29h.45l.78.21.01.04c0 .03 0 .11.02.15l-.02.03-1.04.45c-.04.02-.11.02-.13 0a1.83 1.83 0 0 1-.1-.58c0-.1 0-.2.02-.3zm.11 1.01zm.06.1c0-.03.05-.08.09-.1l1.04-.43.04.02.07.08c0 .01.02.04.01.05l-.62.95c-.02.03-.09.07-.12.06a1.81 1.81 0 0 1-.51-.62zm.62.7h-.03.03zm1 .32zm1.3-.54c-.02.02-.1-.02-.13-.05l-.73-.86v-.04a.77.77 0 0 0 .05-.1c.01 0 .03-.03.05-.02l1.09.3c.03 0 .09.04.1.08-.1.26-.23.5-.42.69zm.5-.94c-.01.03-.1.04-.14.03l-1.08-.3-.02-.04a.94.94 0 0 0-.01-.13c0-.01 0-.04.02-.05l1.05-.4c.04-.01.11 0 .14.02a1.85 1.85 0 0 1 .04.87zm-.14-1.13c0 .04-.05.1-.09.1l.07-.02-1.12.43-.04-.02a1.1 1.1 0 0 0-.08-.1l-.02-.05.1-.15c.34-.09.71-.2 1.1-.34l.08.15zm2.93-1.6c-.48.34-.25.76-.56.84-.1-.01-.72.1-.82.14-.2-.19-.41-.35-.73-.44.6-.24 1.56-.5 2.11-.55zm-1.98.87c-.1.05-.39.16-.76.29a2.17 2.17 0 0 0-.33-.39c.47-.02.86 0 1.09.1zm5.27-6.18c-.74.74-.65 1.85-.56 2.72-.17.13-.38.23-.52.3-.08-1.06.04-2.66 1.08-3.02zm-18.47.38c-.13-.17-.31-.42-.17-.6.1-.13.32-.03.44.03.1.06.93.5 1.16.56 1.67.42 3.78-.2 5.1 1 .07.07.11.12.1.2-1.94-1.32-4.87.64-6.63-1.2zm1.57 2.13c.14.09.2.3.34.43.25.41.72.55.97.91a.84.84 0 0 1-.25-.02c-.16-.03-.23-.08-.36-.14-.08-.11-.26-.15-.4-.08-.11.02-.42 0-.63-.05.04-.33.36-.65.33-1.05zm-1.95 3.57.51.57c-.37 0-.72-.02-1.06-.04-.02-.04-.04-.07-.03-.1.06-.13.14-.26.23-.37l.35-.05zm3.02.14.16.29c-.25.04-.52.06-.8.09l.4-.34c.1-.08.21-.07.24-.04zm-.35-.08-.57.48-.43.02.23-.66c.28.01.56.03.82.06-.01.03-.02.07-.05.1zm-.14 2.94c-.2.15-.43.26-.67.32-.05 0-.13-.07-.15-.17l-.22-1.2.01-.03a.54.54 0 0 0 .12-.06h.04l.82.9c.08.1.08.2.05.24zm-1.73-2.1c.01 0 .02.02 0 .04l-.05.07c0 .02-.02.02-.04.01l-.9-.32.84.02.15.17zm.9-.05a.47.47 0 0 0-.09-.07c-.01 0-.02-.02-.01-.04l.02-.04.31-.02-.19.16c0 .01-.02.02-.04 0zm-.21-.29h-.24l-.13-.66.12-.01h.49l-.24.67zm-.53-.65.12.66h-.35l-.54-.6.77-.06zm.13.8v.02a.63.63 0 0 0-.12.06h-.04l-.06-.07h.23zm-1.72-.2.02-.02a.18.18 0 0 1-.02.03zm-.09.31c.02-.04.13-.08.23-.05l1.15.4.02.04a.66.66 0 0 0-.01.12l-.03.03-1.2.22c-.11.02-.2-.04-.21-.08l-.02-.18a2 2 0 0 1 .07-.5zm.02 1.08c0-.05.07-.14.18-.16l1.19-.22a.03.03 0 0 1 .03.02l.04.09v.04l-.96.76c-.1.07-.2.06-.23.03a2.18 2.18 0 0 1-.25-.56zm.29.61-.03-.04.03.04zm.22.27c-.02-.03 0-.16.08-.23l.94-.75c.01-.02.03-.02.04 0l.1.07c.02 0 .03.02.02.04l-.4 1.14c-.05.12-.14.16-.19.15a2.13 2.13 0 0 1-.59-.42zm.7.47a.24.24 0 0 1-.04-.01l.03.01zm.28.1c-.04-.03-.1-.13-.06-.24l.41-1.14c0-.02.02-.03.04-.02h.11c.02 0 .03.02.03.04l.22 1.19c.02.12-.03.19-.07.21l-.17.02c-.18 0-.35-.03-.51-.07zm1.97-.54a.17.17 0 0 0 .02-.03l-.02.03zm.07-.08c-.04.02-.15.01-.23-.07l-.8-.9c-.02-.01-.02-.03-.01-.04a.38.38 0 0 0 .05-.08c0-.02.03-.02.04-.01l1.16.41c.12.05.15.14.14.18a2.17 2.17 0 0 1-.34.5zm.35-.53.06-.12a1.98 1.98 0 0 1-.06.12zm.13-.37c-.01.04-.12.1-.22.06l-1.16-.42-.02-.03.01-.1.03-.03 1.22-.19c.12-.01.2.04.2.08l.01.12c0 .18-.02.34-.06.5zm0-1.02c0 .04-.07.13-.17.15l-1.21.19a.03.03 0 0 1-.04-.02.64.64 0 0 0-.05-.12v-.04l.36-.3c.35-.03.69-.07 1.03-.12l.08.26zm.62-.63c.08.02.1.08 0 .1l-.34.08-.16-.3c.18.03.36.07.5.12zm-1.97-.44.05-.15c.04-.11.14-.15.18-.14.2.09.37.21.53.36a10.2 10.2 0 0 0-.77-.07zm-.16-.43c.03.02.08.13.05.23l-.07.2c-.18-.02-.36-.03-.55-.02h-.14l-.05-.25c-.02-.12.04-.2.08-.21l.18-.02c.17 0 .34.03.5.07zm-1.07.02c.04 0 .13.07.15.17l.03.17a2.46 2.46 0 0 1-.28-.31l.1-.03zm-.07.43-.58.07c-.04-.08-.04-.15-.02-.18l.3-.18c.1.1.19.2.3.29zm-.83.09zm-1.27.47.55-.16a2.6 2.6 0 0 0-.14.32l-.41-.05c-.1-.02-.08-.08 0-.1zm36.7-5.92c-.04.03-.06.08-.02.09.06.01.1.03.17.1.04.02.03-.04.02-.08-.04-.1-.12-.15-.17-.11z"></path><path d="M50.46 15.54h-1.97c-.02.13.13.23.22.33h2.15l.6-.29c.1-.26-.1-.49-.1-.7.04-.63-.31-1.25-.5-1.82.12-.13.27-.42.47-.34.46.71.55 1.63.47 2.54-.05.22-.43.43-.42.64 0 .07.51.04.72-.14.03-.14.3-.32.4-.34.09-.28-.06-.27-.04-.44a5.62 5.62 0 0 0-.1-1.48l-.04-.02c-.1-.25.13-.62.23-.86l.68-.06c-.08-.6-.3-1.24-.43-1.87.08-.14.23-.26.37-.34.72-.48.09-1.25.06-1.84-.12-.31-.55-.55-.58-.89.08.07.15.04.17.05.2-.15.2-.35.1-.6.3-.38.5-.55.56-.67-.02-.32-.53-.78-.82-.78-.17.1-.29.29-.61.53-.01.02-.38-.13-.5 0-.1.08-.07.37.13.53-.02.08-.04.1-.09.2-.02.05-.03.1 0 .12.07.06.09.16.04.3-.05.15.12.26.18.29l.05.05c.02.16-.55.47-.55.6-.04.39-.29.35-.52 1.64.03.31.02.59 0 .84-.3.77-.53 1.21-.73 1.77-.16.46.76 1.8.77 2.7-.2.3-.36.26-.37.35zm1.5-1.38a.88.88 0 0 1-.07-.43c.08-.08.23-.02.3-.03.1.43.12.49-.24.46zm0-6.36c.03-.02.05-.08.07-.1.3-.2.09-.06-.21-.22-.1-.05-.1-.14-.09-.28.02-.16-.05-.2-.08-.25l.08-.16c.07-.1.13-.32.17-.38.5.02.39.24.4.28.04.11.25.34.35.42-.03.3-.27.12-.16.4-.03.53-.65.46-.92.9-.03-.44.35-.44.39-.61zm-.57 2.26c.14.13.28.28.38.3.08.19-.15.21-.23.3-.18.03-.25-.17-.36-.08-.03.02-.14 0-.14-.03.06-.16.23-.39.35-.49zm-1.19 2.68c-.07-.36.42-.93.74-2.04.13-.04.2.26.4.14.28.01.16.77.43.29 0-.22-.02-.45.15-.57.18-.04.3.06.31.22l-.28.44c.53.02-.17.87.53.72-.02.32-.19 1.21-.31 1.17-.1-.5-.18-.3-.18-.15.02.2.02.35.13.5-.03.05-.18.05-.22.05-.4-.56-.38-1.34-.63-1.95-.05 0-.1.05-.1.1-.03.37-.17.9-.47 1.08-.2.1.41.04-.09.27.2.13.02.3-.19.3-.1-.22-.18-.4-.21-.57zm.53 1.23a2.37 2.37 0 0 1-.23-.43l.3-.12c.08.1.17.28.18.45-.06.03-.15.1-.25.1zm-9.34-5.96c-.04-.59.2-1.09-.07-1.72 0-.26.18-.46.14-.7l-.45.1c-.07.5-.15.67-.08 1.13.11.54.17 1.03.46 1.2zm-4.61 1.65c1.7-.48 2.89-.89 4.3-1.49-.59-1.26-.46-1.62-.4-2.43 0 0-.73.01-1.56-.2-1 .63-2.15 2.92-2.34 4.12zm5.86.36c-.09-.09.05.06 0 0zM44.7 6.2c-.72-.5-1.28-1.65-2.06-1.57-.08-.85-.45-2.29.72-3.81.16-.07.4-.1.5-.21-.48-.05-1.11.25-1.57-.01 0 0 .21.37.46.42-.16.22-.48.38-.29.76-.39.24-.24.58-.12.77-.2.2-.32.57-.06.79-.32.34.08.63.17.75-.16.34 0 .6 0 .6 0 .25-.45.6-.6.72-.2.58-.12 1.75-.1 2.52 1.08-.51 2.13-1 2.95-1.73zM32.4 26.7c0-.6-.4-1.32-.97-1.66a1.03 1.03 0 0 0-.45-.15c.14.01.32 0 .5-.07a.06.06 0 0 1 .01 0c.57-.26 1.26-.99 1.26-2.23 0-.9-.4-1.65-1.06-2.13a3.47 3.47 0 0 0-2.1-.55h-5.83v1.48h1.31v7.45h-1.3v1.48h4.13v-1.48h-1.3v-3.28h2.86c.99 0 1.37.66 1.39 1.21l.07 3.54h2.85v-1.47h-1.33l-.04-2.13zm-2.63-2.57H26.6v-2.74h3c.31 0 .7-.01 1 .14.36.19.71.59.71 1.25 0 .76-.7 1.35-1.54 1.35zm-6.52 9.85h-1.98v5.94h.88v-2.57h.98c1.42 0 2.06-.73 2.06-1.67s-.6-1.7-1.94-1.7zm-.04 2.6h-1.05v-1.84h1.09c.8 0 1.04.47 1.04.9 0 .6-.42.94-1.08.94zm5.4-2.64-2.63 5.98h.95l.72-1.75h2.6l.75 1.75h.97l-2.74-5.98h-.62zM28 37.4l.91-2.35.99 2.35H28zm12.99-3.42h.88v5.94h-.88zm4.54 1.39c0-.42.42-.7 1.02-.7.44 0 .97.13 1.52.61v-.97a2.77 2.77 0 0 0-1.44-.41c-1.19 0-1.97.61-1.97 1.58 0 1.63 2.8 1.77 2.8 3 0 .33-.33.75-1.05.75-.64 0-1.23-.3-1.71-.86v1.08c.54.37 1.1.55 1.81.55 1.05 0 1.82-.68 1.82-1.61 0-1.9-2.8-1.88-2.8-3.02zm-7.65 3.37c-.48-.74-.83-1.29-1.4-1.64a1.5 1.5 0 0 0 1.05-1.46c0-1.03-.79-1.66-2.05-1.66H33.9v5.94h.9v-2.58h.38c.45 0 .83.14 1.65 1.36l.79 1.22h1.05l-.46-.69a9.8 9.8 0 0 1-.33-.49zm-2.5-2.17h-.58v-1.86h.58c.87 0 1.22.34 1.23.9 0 .5-.27.96-1.23.96z"></path></svg>
