<svg width="199" height="62" fill="none" xmlns="http://www.w3.org/2000/svg"><g clip-path="url(#clip0_103_1069)" fill-rule="evenodd" clip-rule="evenodd" fill="currentColor"><path d="M197.913 60.784a5.08 5.08 0 01-.531-.05c-.355-.049-.424-.32-.457-.68-.061-.522-.061-1.497-.061-2.687v-1.984c0-1.93 0-2.279.024-2.672.021-.435.118-.646.435-.708.141-.025.212-.037.294-.037.049 0 .098-.122.098-.169 0-.077-.063-.1-.194-.1-.351 0-1.092.036-1.155.036-.056 0-.8-.036-1.19-.036-.127 0-.188.023-.188.1 0 .047.049.17.096.17.082 0 .235.011.364.048.261.064.379.274.401.696.023.394.023.741.023 2.672v1.984c0 1.19 0 2.165-.059 2.687-.046.36-.104.631-.34.68-.105.024-.249.05-.356.05-.068 0-.095.133-.095.17 0 .075.062.1.189.1.355 0 1.099-.037 1.155-.037.063 0 .804.037 1.451.037.133 0 .19-.037.19-.1 0-.038-.022-.17-.094-.17z"/></g><defs><clipPath id="clip0_103_1069"><path fill="#fff" transform="translate(.351)" d="M0 0h197.711v61.44H0z"/></clipPath></defs></svg>
